<svg width="152" height="40" viewBox="0 0 152 40" fill="none" xmlns="http://www.w3.org/2000/svg">
<path d="M1.98696 13.3938C1.45999 13.3938 0.954596 13.6031 0.581968 13.9757C0.20934 14.3484 0 14.8538 0 15.3807V25.4836C0.0157511 26.0003 0.232093 26.4906 0.603175 26.8506C0.974257 27.2105 1.47091 27.4118 1.98789 27.4118C2.50486 27.4118 3.00152 27.2105 3.3726 26.8506C3.74368 26.4906 3.96002 26.0003 3.97578 25.4836V15.3807C3.97578 15.1197 3.92432 14.8611 3.82435 14.6199C3.72438 14.3787 3.57786 14.1596 3.39315 13.9751C3.20845 13.7906 2.98919 13.6442 2.74791 13.5445C2.50663 13.4448 2.24805 13.3935 1.98696 13.3938Z" fill="#333333"/>
<path d="M14.6788 17.617C14.1217 17.617 13.5772 17.7822 13.1141 18.0917C12.6509 18.4012 12.29 18.8412 12.0769 19.3559C11.8638 19.8705 11.8081 20.4369 11.9169 20.9832C12.0257 21.5295 12.2941 22.0313 12.6882 22.425C13.0822 22.8188 13.5841 23.0869 14.1305 23.1953C14.6769 23.3038 15.2432 23.2477 15.7577 23.0343C16.2723 22.8209 16.712 22.4596 17.0212 21.9963C17.3304 21.5329 17.4953 20.9883 17.4949 20.4313C17.4949 20.0615 17.422 19.6954 17.2805 19.3539C17.1389 19.0123 16.9315 18.702 16.67 18.4406C16.4084 18.1793 16.098 17.972 15.7563 17.8307C15.4147 17.6894 15.0485 17.6168 14.6788 17.617Z" fill="#333333"/>
<path d="M27.3706 13.3938C26.8436 13.3938 26.3382 13.6031 25.9656 13.9757C25.593 14.3484 25.3837 14.8538 25.3837 15.3807V25.4836C25.3994 26.0003 25.6157 26.4906 25.9868 26.8506C26.3579 27.2105 26.8546 27.4118 27.3715 27.4118C27.8885 27.4118 28.3852 27.2105 28.7563 26.8506C29.1273 26.4906 29.3437 26.0003 29.3594 25.4836V15.3807C29.3594 15.1197 29.308 14.8611 29.208 14.6199C29.108 14.3787 28.9615 14.1596 28.7768 13.9751C28.5921 13.7906 28.3728 13.6442 28.1316 13.5445C27.8903 13.4448 27.6317 13.3935 27.3706 13.3938Z" fill="#333333"/>
<path d="M40.0717 17.617C39.5142 17.6152 38.9688 17.7788 38.5044 18.0872C38.0401 18.3956 37.6777 18.8349 37.4632 19.3494C37.2487 19.864 37.1917 20.4306 37.2995 20.9775C37.4072 21.5244 37.6749 22.0271 38.0685 22.4217C38.4622 22.8164 38.9641 23.0854 39.5108 23.1946C40.0574 23.3038 40.6242 23.2483 41.1393 23.0352C41.6543 22.822 42.0946 22.4608 42.4042 21.9972C42.7138 21.5337 42.8789 20.9887 42.8785 20.4313C42.8785 19.6861 42.5831 18.9714 42.0569 18.4439C41.5307 17.9163 40.8168 17.619 40.0717 17.617Z" fill="#333333"/>
<path d="M52.7543 13.3938C52.2273 13.3938 51.7219 13.6031 51.3493 13.9757C50.9766 14.3484 50.7673 14.8538 50.7673 15.3807V25.4836C50.7831 26.0003 50.9994 26.4906 51.3705 26.8506C51.7416 27.2105 52.2382 27.4118 52.7552 27.4118C53.2722 27.4118 53.7688 27.2105 54.1399 26.8506C54.511 26.4906 54.7273 26.0003 54.7431 25.4836V15.3807C54.7431 15.1197 54.6916 14.8611 54.5917 14.6199C54.4917 14.3787 54.3452 14.1596 54.1605 13.9751C53.9758 13.7906 53.7565 13.6442 53.5152 13.5445C53.2739 13.4448 53.0154 13.3935 52.7543 13.3938Z" fill="#333333"/>
<path d="M65.4461 17.617C64.889 17.617 64.3445 17.7822 63.8814 18.0917C63.4182 18.4012 63.0573 18.8412 62.8442 19.3559C62.6311 19.8705 62.5754 20.4369 62.6842 20.9832C62.7931 21.5295 63.0614 22.0313 63.4555 22.425C63.8495 22.8188 64.3514 23.0869 64.8978 23.1953C65.4442 23.3038 66.0105 23.2477 66.5251 23.0343C67.0396 22.8209 67.4793 22.4596 67.7885 21.9963C68.0977 21.5329 68.2626 20.9883 68.2622 20.4313C68.2622 20.0615 68.1893 19.6954 68.0478 19.3539C67.9062 19.0123 67.6988 18.702 67.4373 18.4406C67.1757 18.1793 66.8653 17.972 66.5236 17.8307C66.182 17.6894 65.8158 17.6168 65.4461 17.617Z" fill="#333333"/>
</svg>